<?xml version='1.0' encoding='UTF-8'?>
<svg xmlns:svg="http://www.w3.org/2000/svg" width="56.4mm" height="56.4mm" version="1.1" xmlns="http://www.w3.org/2000/svg"><rect fill="white" x="0" y="0" width="100%" height="100%" /><svg:rect x="3.6mm" y="3.6mm" width="1.2mm" height="1.2mm" /><svg:rect x="4.8mm" y="3.6mm" width="1.2mm" height="1.2mm" /><svg:rect x="6mm" y="3.6mm" width="1.2mm" height="1.2mm" /><svg:rect x="7.2mm" y="3.6mm" width="1.2mm" height="1.2mm" /><svg:rect x="8.4mm" y="3.6mm" width="1.2mm" height="1.2mm" /><svg:rect x="9.6mm" y="3.6mm" width="1.2mm" height="1.2mm" /><svg:rect x="10.8mm" y="3.6mm" width="1.2mm" height="1.2mm" /><svg:rect x="13.2mm" y="3.6mm" width="1.2mm" height="1.2mm" /><svg:rect x="15.6mm" y="3.6mm" width="1.2mm" height="1.2mm" /><svg:rect x="16.8mm" y="3.6mm" width="1.2mm" height="1.2mm" /><svg:rect x="18mm" y="3.6mm" width="1.2mm" height="1.2mm" /><svg:rect x="19.2mm" y="3.6mm" width="1.2mm" height="1.2mm" /><svg:rect x="25.2mm" y="3.6mm" width="1.2mm" height="1.2mm" /><svg:rect x="26.4mm" y="3.6mm" width="1.2mm" height="1.2mm" /><svg:rect x="27.6mm" y="3.6mm" width="1.2mm" height="1.2mm" /><svg:rect x="30mm" y="3.6mm" width="1.2mm" height="1.2mm" /><svg:rect x="31.2mm" y="3.6mm" width="1.2mm" height="1.2mm" /><svg:rect x="34.8mm" y="3.6mm" width="1.2mm" height="1.2mm" /><svg:rect x="36mm" y="3.6mm" width="1.2mm" height="1.2mm" /><svg:rect x="38.4mm" y="3.6mm" width="1.2mm" height="1.2mm" /><svg:rect x="40.8mm" y="3.6mm" width="1.2mm" height="1.2mm" /><svg:rect x="44.4mm" y="3.6mm" width="1.2mm" height="1.2mm" /><svg:rect x="45.6mm" y="3.6mm" width="1.2mm" height="1.2mm" /><svg:rect x="46.8mm" y="3.6mm" width="1.2mm" height="1.2mm" /><svg:rect x="48mm" y="3.6mm" width="1.2mm" height="1.2mm" /><svg:rect x="49.2mm" y="3.6mm" width="1.2mm" height="1.2mm" /><svg:rect x="50.4mm" y="3.6mm" width="1.2mm" height="1.2mm" /><svg:rect x="51.6mm" y="3.6mm" width="1.2mm" height="1.2mm" /><svg:rect x="3.6mm" y="4.8mm" width="1.2mm" height="1.2mm" /><svg:rect x="10.8mm" y="4.8mm" width="1.2mm" height="1.2mm" /><svg:rect x="13.2mm" y="4.8mm" width="1.2mm" height="1.2mm" /><svg:rect x="18mm" y="4.8mm" width="1.2mm" height="1.2mm" /><svg:rect x="19.2mm" y="4.8mm" width="1.2mm" height="1.2mm" /><svg:rect x="22.8mm" y="4.8mm" width="1.2mm" height="1.2mm" /><svg:rect x="25.2mm" y="4.8mm" width="1.2mm" height="1.2mm" /><svg:rect x="26.4mm" y="4.8mm" width="1.2mm" height="1.2mm" /><svg:rect x="28.8mm" y="4.8mm" width="1.2mm" height="1.2mm" /><svg:rect x="36mm" y="4.8mm" width="1.2mm" height="1.2mm" /><svg:rect x="37.2mm" y="4.8mm" width="1.2mm" height="1.2mm" /><svg:rect x="39.6mm" y="4.8mm" width="1.2mm" height="1.2mm" /><svg:rect x="42mm" y="4.8mm" width="1.2mm" height="1.2mm" /><svg:rect x="44.4mm" y="4.8mm" width="1.2mm" height="1.2mm" /><svg:rect x="51.6mm" y="4.8mm" width="1.2mm" height="1.2mm" /><svg:rect x="3.6mm" y="6mm" width="1.2mm" height="1.2mm" /><svg:rect x="6mm" y="6mm" width="1.2mm" height="1.2mm" /><svg:rect x="7.2mm" y="6mm" width="1.2mm" height="1.2mm" /><svg:rect x="8.4mm" y="6mm" width="1.2mm" height="1.2mm" /><svg:rect x="10.8mm" y="6mm" width="1.2mm" height="1.2mm" /><svg:rect x="15.6mm" y="6mm" width="1.2mm" height="1.2mm" /><svg:rect x="20.4mm" y="6mm" width="1.2mm" height="1.2mm" /><svg:rect x="21.6mm" y="6mm" width="1.2mm" height="1.2mm" /><svg:rect x="25.2mm" y="6mm" width="1.2mm" height="1.2mm" /><svg:rect x="27.6mm" y="6mm" width="1.2mm" height="1.2mm" /><svg:rect x="30mm" y="6mm" width="1.2mm" height="1.2mm" /><svg:rect x="31.2mm" y="6mm" width="1.2mm" height="1.2mm" /><svg:rect x="34.8mm" y="6mm" width="1.2mm" height="1.2mm" /><svg:rect x="36mm" y="6mm" width="1.2mm" height="1.2mm" /><svg:rect x="37.2mm" y="6mm" width="1.2mm" height="1.2mm" /><svg:rect x="39.6mm" y="6mm" width="1.2mm" height="1.2mm" /><svg:rect x="40.8mm" y="6mm" width="1.2mm" height="1.2mm" /><svg:rect x="44.4mm" y="6mm" width="1.2mm" height="1.2mm" /><svg:rect x="46.8mm" y="6mm" width="1.2mm" height="1.2mm" /><svg:rect x="48mm" y="6mm" width="1.2mm" height="1.2mm" /><svg:rect x="49.2mm" y="6mm" width="1.2mm" height="1.2mm" /><svg:rect x="51.6mm" y="6mm" width="1.2mm" height="1.2mm" /><svg:rect x="3.6mm" y="7.2mm" width="1.2mm" height="1.2mm" /><svg:rect x="6mm" y="7.2mm" width="1.2mm" height="1.2mm" /><svg:rect x="7.2mm" y="7.2mm" width="1.2mm" height="1.2mm" /><svg:rect x="8.4mm" y="7.2mm" width="1.2mm" height="1.2mm" /><svg:rect x="10.8mm" y="7.2mm" width="1.2mm" height="1.2mm" /><svg:rect x="13.2mm" y="7.2mm" width="1.2mm" height="1.2mm" /><svg:rect x="15.6mm" y="7.2mm" width="1.2mm" height="1.2mm" /><svg:rect x="18mm" y="7.2mm" width="1.2mm" height="1.2mm" /><svg:rect x="19.2mm" y="7.2mm" width="1.2mm" height="1.2mm" /><svg:rect x="25.2mm" y="7.2mm" width="1.2mm" height="1.2mm" /><svg:rect x="27.6mm" y="7.2mm" width="1.2mm" height="1.2mm" /><svg:rect x="28.8mm" y="7.2mm" width="1.2mm" height="1.2mm" /><svg:rect x="31.2mm" y="7.2mm" width="1.2mm" height="1.2mm" /><svg:rect x="32.4mm" y="7.2mm" width="1.2mm" height="1.2mm" /><svg:rect x="33.6mm" y="7.2mm" width="1.2mm" height="1.2mm" /><svg:rect x="36mm" y="7.2mm" width="1.2mm" height="1.2mm" /><svg:rect x="38.4mm" y="7.2mm" width="1.2mm" height="1.2mm" /><svg:rect x="39.6mm" y="7.2mm" width="1.2mm" height="1.2mm" /><svg:rect x="40.8mm" y="7.2mm" width="1.2mm" height="1.2mm" /><svg:rect x="44.4mm" y="7.2mm" width="1.2mm" height="1.2mm" /><svg:rect x="46.8mm" y="7.2mm" width="1.2mm" height="1.2mm" /><svg:rect x="48mm" y="7.2mm" width="1.2mm" height="1.2mm" /><svg:rect x="49.2mm" y="7.2mm" width="1.2mm" height="1.2mm" /><svg:rect x="51.6mm" y="7.2mm" width="1.2mm" height="1.2mm" /><svg:rect x="3.6mm" y="8.4mm" width="1.2mm" height="1.2mm" /><svg:rect x="6mm" y="8.4mm" width="1.2mm" height="1.2mm" /><svg:rect x="7.2mm" y="8.4mm" width="1.2mm" height="1.2mm" /><svg:rect x="8.4mm" y="8.4mm" width="1.2mm" height="1.2mm" /><svg:rect x="10.8mm" y="8.4mm" width="1.2mm" height="1.2mm" /><svg:rect x="13.2mm" y="8.4mm" width="1.2mm" height="1.2mm" /><svg:rect x="14.4mm" y="8.4mm" width="1.2mm" height="1.2mm" /><svg:rect x="21.6mm" y="8.4mm" width="1.2mm" height="1.2mm" /><svg:rect x="22.8mm" y="8.4mm" width="1.2mm" height="1.2mm" /><svg:rect x="31.2mm" y="8.4mm" width="1.2mm" height="1.2mm" /><svg:rect x="36mm" y="8.4mm" width="1.2mm" height="1.2mm" /><svg:rect x="37.2mm" y="8.4mm" width="1.2mm" height="1.2mm" /><svg:rect x="39.6mm" y="8.4mm" width="1.2mm" height="1.2mm" /><svg:rect x="44.4mm" y="8.4mm" width="1.2mm" height="1.2mm" /><svg:rect x="46.8mm" y="8.4mm" width="1.2mm" height="1.2mm" /><svg:rect x="48mm" y="8.4mm" width="1.2mm" height="1.2mm" /><svg:rect x="49.2mm" y="8.4mm" width="1.2mm" height="1.2mm" /><svg:rect x="51.6mm" y="8.4mm" width="1.2mm" height="1.2mm" /><svg:rect x="3.6mm" y="9.6mm" width="1.2mm" height="1.2mm" /><svg:rect x="10.8mm" y="9.6mm" width="1.2mm" height="1.2mm" /><svg:rect x="13.2mm" y="9.6mm" width="1.2mm" height="1.2mm" /><svg:rect x="14.4mm" y="9.6mm" width="1.2mm" height="1.2mm" /><svg:rect x="15.6mm" y="9.6mm" width="1.2mm" height="1.2mm" /><svg:rect x="16.8mm" y="9.6mm" width="1.2mm" height="1.2mm" /><svg:rect x="18mm" y="9.6mm" width="1.2mm" height="1.2mm" /><svg:rect x="21.6mm" y="9.6mm" width="1.2mm" height="1.2mm" /><svg:rect x="22.8mm" y="9.6mm" width="1.2mm" height="1.2mm" /><svg:rect x="30mm" y="9.6mm" width="1.2mm" height="1.2mm" /><svg:rect x="31.2mm" y="9.6mm" width="1.2mm" height="1.2mm" /><svg:rect x="33.6mm" y="9.6mm" width="1.2mm" height="1.2mm" /><svg:rect x="34.8mm" y="9.6mm" width="1.2mm" height="1.2mm" /><svg:rect x="36mm" y="9.6mm" width="1.2mm" height="1.2mm" /><svg:rect x="37.2mm" y="9.6mm" width="1.2mm" height="1.2mm" /><svg:rect x="38.4mm" y="9.6mm" width="1.2mm" height="1.2mm" /><svg:rect x="40.8mm" y="9.6mm" width="1.2mm" height="1.2mm" /><svg:rect x="44.4mm" y="9.6mm" width="1.2mm" height="1.2mm" /><svg:rect x="51.6mm" y="9.6mm" width="1.2mm" height="1.2mm" /><svg:rect x="3.6mm" y="10.8mm" width="1.2mm" height="1.2mm" /><svg:rect x="4.8mm" y="10.8mm" width="1.2mm" height="1.2mm" /><svg:rect x="6mm" y="10.8mm" width="1.2mm" height="1.2mm" /><svg:rect x="7.2mm" y="10.8mm" width="1.2mm" height="1.2mm" /><svg:rect x="8.4mm" y="10.8mm" width="1.2mm" height="1.2mm" /><svg:rect x="9.6mm" y="10.8mm" width="1.2mm" height="1.2mm" /><svg:rect x="10.8mm" y="10.8mm" width="1.2mm" height="1.2mm" /><svg:rect x="13.2mm" y="10.8mm" width="1.2mm" height="1.2mm" /><svg:rect x="15.6mm" y="10.8mm" width="1.2mm" height="1.2mm" /><svg:rect x="18mm" y="10.8mm" width="1.2mm" height="1.2mm" /><svg:rect x="20.4mm" y="10.8mm" width="1.2mm" height="1.2mm" /><svg:rect x="22.8mm" y="10.8mm" width="1.2mm" height="1.2mm" /><svg:rect x="25.2mm" y="10.8mm" width="1.2mm" height="1.2mm" /><svg:rect x="27.6mm" y="10.8mm" width="1.2mm" height="1.2mm" /><svg:rect x="30mm" y="10.8mm" width="1.2mm" height="1.2mm" /><svg:rect x="32.4mm" y="10.8mm" width="1.2mm" height="1.2mm" /><svg:rect x="34.8mm" y="10.8mm" width="1.2mm" height="1.2mm" /><svg:rect x="37.2mm" y="10.8mm" width="1.2mm" height="1.2mm" /><svg:rect x="39.6mm" y="10.8mm" width="1.2mm" height="1.2mm" /><svg:rect x="42mm" y="10.8mm" width="1.2mm" height="1.2mm" /><svg:rect x="44.4mm" y="10.8mm" width="1.2mm" height="1.2mm" /><svg:rect x="45.6mm" y="10.8mm" width="1.2mm" height="1.2mm" /><svg:rect x="46.8mm" y="10.8mm" width="1.2mm" height="1.2mm" /><svg:rect x="48mm" y="10.8mm" width="1.2mm" height="1.2mm" /><svg:rect x="49.2mm" y="10.8mm" width="1.2mm" height="1.2mm" /><svg:rect x="50.4mm" y="10.8mm" width="1.2mm" height="1.2mm" /><svg:rect x="51.6mm" y="10.8mm" width="1.2mm" height="1.2mm" /><svg:rect x="14.4mm" y="12mm" width="1.2mm" height="1.2mm" /><svg:rect x="15.6mm" y="12mm" width="1.2mm" height="1.2mm" /><svg:rect x="16.8mm" y="12mm" width="1.2mm" height="1.2mm" /><svg:rect x="21.6mm" y="12mm" width="1.2mm" height="1.2mm" /><svg:rect x="31.2mm" y="12mm" width="1.2mm" height="1.2mm" /><svg:rect x="32.4mm" y="12mm" width="1.2mm" height="1.2mm" /><svg:rect x="34.8mm" y="12mm" width="1.2mm" height="1.2mm" /><svg:rect x="38.4mm" y="12mm" width="1.2mm" height="1.2mm" /><svg:rect x="42mm" y="12mm" width="1.2mm" height="1.2mm" /><svg:rect x="7.2mm" y="13.2mm" width="1.2mm" height="1.2mm" /><svg:rect x="10.8mm" y="13.2mm" width="1.2mm" height="1.2mm" /><svg:rect x="14.4mm" y="13.2mm" width="1.2mm" height="1.2mm" /><svg:rect x="16.8mm" y="13.2mm" width="1.2mm" height="1.2mm" /><svg:rect x="18mm" y="13.2mm" width="1.2mm" height="1.2mm" /><svg:rect x="20.4mm" y="13.2mm" width="1.2mm" height="1.2mm" /><svg:rect x="21.6mm" y="13.2mm" width="1.2mm" height="1.2mm" /><svg:rect x="24mm" y="13.2mm" width="1.2mm" height="1.2mm" /><svg:rect x="28.8mm" y="13.2mm" width="1.2mm" height="1.2mm" /><svg:rect x="30mm" y="13.2mm" width="1.2mm" height="1.2mm" /><svg:rect x="32.4mm" y="13.2mm" width="1.2mm" height="1.2mm" /><svg:rect x="36mm" y="13.2mm" width="1.2mm" height="1.2mm" /><svg:rect x="37.2mm" y="13.2mm" width="1.2mm" height="1.2mm" /><svg:rect x="42mm" y="13.2mm" width="1.2mm" height="1.2mm" /><svg:rect x="45.6mm" y="13.2mm" width="1.2mm" height="1.2mm" /><svg:rect x="46.8mm" y="13.2mm" width="1.2mm" height="1.2mm" /><svg:rect x="48mm" y="13.2mm" width="1.2mm" height="1.2mm" /><svg:rect x="50.4mm" y="13.2mm" width="1.2mm" height="1.2mm" /><svg:rect x="51.6mm" y="13.2mm" width="1.2mm" height="1.2mm" /><svg:rect x="3.6mm" y="14.4mm" width="1.2mm" height="1.2mm" /><svg:rect x="4.8mm" y="14.4mm" width="1.2mm" height="1.2mm" /><svg:rect x="7.2mm" y="14.4mm" width="1.2mm" height="1.2mm" /><svg:rect x="15.6mm" y="14.4mm" width="1.2mm" height="1.2mm" /><svg:rect x="19.2mm" y="14.4mm" width="1.2mm" height="1.2mm" /><svg:rect x="21.6mm" y="14.4mm" width="1.2mm" height="1.2mm" /><svg:rect x="22.8mm" y="14.4mm" width="1.2mm" height="1.2mm" /><svg:rect x="25.2mm" y="14.4mm" width="1.2mm" height="1.2mm" /><svg:rect x="26.4mm" y="14.4mm" width="1.2mm" height="1.2mm" /><svg:rect x="27.6mm" y="14.4mm" width="1.2mm" height="1.2mm" /><svg:rect x="28.8mm" y="14.4mm" width="1.2mm" height="1.2mm" /><svg:rect x="31.2mm" y="14.4mm" width="1.2mm" height="1.2mm" /><svg:rect x="32.4mm" y="14.4mm" width="1.2mm" height="1.2mm" /><svg:rect x="37.2mm" y="14.4mm" width="1.2mm" height="1.2mm" /><svg:rect x="38.4mm" y="14.4mm" width="1.2mm" height="1.2mm" /><svg:rect x="42mm" y="14.4mm" width="1.2mm" height="1.2mm" /><svg:rect x="43.2mm" y="14.4mm" width="1.2mm" height="1.2mm" /><svg:rect x="44.4mm" y="14.4mm" width="1.2mm" height="1.2mm" /><svg:rect x="48mm" y="14.4mm" width="1.2mm" height="1.2mm" /><svg:rect x="49.2mm" y="14.4mm" width="1.2mm" height="1.2mm" /><svg:rect x="50.4mm" y="14.4mm" width="1.2mm" height="1.2mm" /><svg:rect x="51.6mm" y="14.4mm" width="1.2mm" height="1.2mm" /><svg:rect x="3.6mm" y="15.6mm" width="1.2mm" height="1.2mm" /><svg:rect x="7.2mm" y="15.6mm" width="1.2mm" height="1.2mm" /><svg:rect x="9.6mm" y="15.6mm" width="1.2mm" height="1.2mm" /><svg:rect x="10.8mm" y="15.6mm" width="1.2mm" height="1.2mm" /><svg:rect x="12mm" y="15.6mm" width="1.2mm" height="1.2mm" /><svg:rect x="13.2mm" y="15.6mm" width="1.2mm" height="1.2mm" /><svg:rect x="22.8mm" y="15.6mm" width="1.2mm" height="1.2mm" /><svg:rect x="24mm" y="15.6mm" width="1.2mm" height="1.2mm" /><svg:rect x="25.2mm" y="15.6mm" width="1.2mm" height="1.2mm" /><svg:rect x="26.4mm" y="15.6mm" width="1.2mm" height="1.2mm" /><svg:rect x="27.6mm" y="15.6mm" width="1.2mm" height="1.2mm" /><svg:rect x="30mm" y="15.6mm" width="1.2mm" height="1.2mm" /><svg:rect x="31.2mm" y="15.6mm" width="1.2mm" height="1.2mm" /><svg:rect x="33.6mm" y="15.6mm" width="1.2mm" height="1.2mm" /><svg:rect x="37.2mm" y="15.6mm" width="1.2mm" height="1.2mm" /><svg:rect x="38.4mm" y="15.6mm" width="1.2mm" height="1.2mm" /><svg:rect x="39.6mm" y="15.6mm" width="1.2mm" height="1.2mm" /><svg:rect x="40.8mm" y="15.6mm" width="1.2mm" height="1.2mm" /><svg:rect x="44.4mm" y="15.6mm" width="1.2mm" height="1.2mm" /><svg:rect x="46.8mm" y="15.6mm" width="1.2mm" height="1.2mm" /><svg:rect x="48mm" y="15.6mm" width="1.2mm" height="1.2mm" /><svg:rect x="49.2mm" y="15.6mm" width="1.2mm" height="1.2mm" /><svg:rect x="50.4mm" y="15.6mm" width="1.2mm" height="1.2mm" /><svg:rect x="3.6mm" y="16.8mm" width="1.2mm" height="1.2mm" /><svg:rect x="4.8mm" y="16.8mm" width="1.2mm" height="1.2mm" /><svg:rect x="7.2mm" y="16.8mm" width="1.2mm" height="1.2mm" /><svg:rect x="8.4mm" y="16.8mm" width="1.2mm" height="1.2mm" /><svg:rect x="9.6mm" y="16.8mm" width="1.2mm" height="1.2mm" /><svg:rect x="12mm" y="16.8mm" width="1.2mm" height="1.2mm" /><svg:rect x="13.2mm" y="16.8mm" width="1.2mm" height="1.2mm" /><svg:rect x="14.4mm" y="16.8mm" width="1.2mm" height="1.2mm" /><svg:rect x="16.8mm" y="16.8mm" width="1.2mm" height="1.2mm" /><svg:rect x="18mm" y="16.8mm" width="1.2mm" height="1.2mm" /><svg:rect x="20.4mm" y="16.8mm" width="1.2mm" height="1.2mm" /><svg:rect x="21.6mm" y="16.8mm" width="1.2mm" height="1.2mm" /><svg:rect x="22.8mm" y="16.8mm" width="1.2mm" height="1.2mm" /><svg:rect x="25.2mm" y="16.8mm" width="1.2mm" height="1.2mm" /><svg:rect x="26.4mm" y="16.8mm" width="1.2mm" height="1.2mm" /><svg:rect x="27.6mm" y="16.8mm" width="1.2mm" height="1.2mm" /><svg:rect x="31.2mm" y="16.8mm" width="1.2mm" height="1.2mm" /><svg:rect x="33.6mm" y="16.8mm" width="1.2mm" height="1.2mm" /><svg:rect x="34.8mm" y="16.8mm" width="1.2mm" height="1.2mm" /><svg:rect x="37.2mm" y="16.8mm" width="1.2mm" height="1.2mm" /><svg:rect x="43.2mm" y="16.8mm" width="1.2mm" height="1.2mm" /><svg:rect x="45.6mm" y="16.8mm" width="1.2mm" height="1.2mm" /><svg:rect x="49.2mm" y="16.8mm" width="1.2mm" height="1.2mm" /><svg:rect x="51.6mm" y="16.8mm" width="1.2mm" height="1.2mm" /><svg:rect x="7.2mm" y="18mm" width="1.2mm" height="1.2mm" /><svg:rect x="8.4mm" y="18mm" width="1.2mm" height="1.2mm" /><svg:rect x="9.6mm" y="18mm" width="1.2mm" height="1.2mm" /><svg:rect x="10.8mm" y="18mm" width="1.2mm" height="1.2mm" /><svg:rect x="15.6mm" y="18mm" width="1.2mm" height="1.2mm" /><svg:rect x="16.8mm" y="18mm" width="1.2mm" height="1.2mm" /><svg:rect x="19.2mm" y="18mm" width="1.2mm" height="1.2mm" /><svg:rect x="24mm" y="18mm" width="1.2mm" height="1.2mm" /><svg:rect x="25.2mm" y="18mm" width="1.2mm" height="1.2mm" /><svg:rect x="26.4mm" y="18mm" width="1.2mm" height="1.2mm" /><svg:rect x="30mm" y="18mm" width="1.2mm" height="1.2mm" /><svg:rect x="32.4mm" y="18mm" width="1.2mm" height="1.2mm" /><svg:rect x="37.2mm" y="18mm" width="1.2mm" height="1.2mm" /><svg:rect x="38.4mm" y="18mm" width="1.2mm" height="1.2mm" /><svg:rect x="39.6mm" y="18mm" width="1.2mm" height="1.2mm" /><svg:rect x="40.8mm" y="18mm" width="1.2mm" height="1.2mm" /><svg:rect x="42mm" y="18mm" width="1.2mm" height="1.2mm" /><svg:rect x="43.2mm" y="18mm" width="1.2mm" height="1.2mm" /><svg:rect x="44.4mm" y="18mm" width="1.2mm" height="1.2mm" /><svg:rect x="48mm" y="18mm" width="1.2mm" height="1.2mm" /><svg:rect x="51.6mm" y="18mm" width="1.2mm" height="1.2mm" /><svg:rect x="3.6mm" y="19.2mm" width="1.2mm" height="1.2mm" /><svg:rect x="4.8mm" y="19.2mm" width="1.2mm" height="1.2mm" /><svg:rect x="6mm" y="19.2mm" width="1.2mm" height="1.2mm" /><svg:rect x="8.4mm" y="19.2mm" width="1.2mm" height="1.2mm" /><svg:rect x="13.2mm" y="19.2mm" width="1.2mm" height="1.2mm" /><svg:rect x="15.6mm" y="19.2mm" width="1.2mm" height="1.2mm" /><svg:rect x="16.8mm" y="19.2mm" width="1.2mm" height="1.2mm" /><svg:rect x="18mm" y="19.2mm" width="1.2mm" height="1.2mm" /><svg:rect x="21.6mm" y="19.2mm" width="1.2mm" height="1.2mm" /><svg:rect x="22.8mm" y="19.2mm" width="1.2mm" height="1.2mm" /><svg:rect x="28.8mm" y="19.2mm" width="1.2mm" height="1.2mm" /><svg:rect x="30mm" y="19.2mm" width="1.2mm" height="1.2mm" /><svg:rect x="31.2mm" y="19.2mm" width="1.2mm" height="1.2mm" /><svg:rect x="32.4mm" y="19.2mm" width="1.2mm" height="1.2mm" /><svg:rect x="36mm" y="19.2mm" width="1.2mm" height="1.2mm" /><svg:rect x="49.2mm" y="19.2mm" width="1.2mm" height="1.2mm" /><svg:rect x="50.4mm" y="19.2mm" width="1.2mm" height="1.2mm" /><svg:rect x="3.6mm" y="20.4mm" width="1.2mm" height="1.2mm" /><svg:rect x="8.4mm" y="20.4mm" width="1.2mm" height="1.2mm" /><svg:rect x="9.6mm" y="20.4mm" width="1.2mm" height="1.2mm" /><svg:rect x="10.8mm" y="20.4mm" width="1.2mm" height="1.2mm" /><svg:rect x="12mm" y="20.4mm" width="1.2mm" height="1.2mm" /><svg:rect x="14.4mm" y="20.4mm" width="1.2mm" height="1.2mm" /><svg:rect x="19.2mm" y="20.4mm" width="1.2mm" height="1.2mm" /><svg:rect x="20.4mm" y="20.4mm" width="1.2mm" height="1.2mm" /><svg:rect x="21.6mm" y="20.4mm" width="1.2mm" height="1.2mm" /><svg:rect x="24mm" y="20.4mm" width="1.2mm" height="1.2mm" /><svg:rect x="25.2mm" y="20.4mm" width="1.2mm" height="1.2mm" /><svg:rect x="26.4mm" y="20.4mm" width="1.2mm" height="1.2mm" /><svg:rect x="27.6mm" y="20.4mm" width="1.2mm" height="1.2mm" /><svg:rect x="28.8mm" y="20.4mm" width="1.2mm" height="1.2mm" /><svg:rect x="30mm" y="20.4mm" width="1.2mm" height="1.2mm" /><svg:rect x="31.2mm" y="20.4mm" width="1.2mm" height="1.2mm" /><svg:rect x="33.6mm" y="20.4mm" width="1.2mm" height="1.2mm" /><svg:rect x="36mm" y="20.4mm" width="1.2mm" height="1.2mm" /><svg:rect x="37.2mm" y="20.4mm" width="1.2mm" height="1.2mm" /><svg:rect x="38.4mm" y="20.4mm" width="1.2mm" height="1.2mm" /><svg:rect x="39.6mm" y="20.4mm" width="1.2mm" height="1.2mm" /><svg:rect x="44.4mm" y="20.4mm" width="1.2mm" height="1.2mm" /><svg:rect x="48mm" y="20.4mm" width="1.2mm" height="1.2mm" /><svg:rect x="51.6mm" y="20.4mm" width="1.2mm" height="1.2mm" /><svg:rect x="3.6mm" y="21.6mm" width="1.2mm" height="1.2mm" /><svg:rect x="6mm" y="21.6mm" width="1.2mm" height="1.2mm" /><svg:rect x="12mm" y="21.6mm" width="1.2mm" height="1.2mm" /><svg:rect x="13.2mm" y="21.6mm" width="1.2mm" height="1.2mm" /><svg:rect x="15.6mm" y="21.6mm" width="1.2mm" height="1.2mm" /><svg:rect x="16.8mm" y="21.6mm" width="1.2mm" height="1.2mm" /><svg:rect x="20.4mm" y="21.6mm" width="1.2mm" height="1.2mm" /><svg:rect x="25.2mm" y="21.6mm" width="1.2mm" height="1.2mm" /><svg:rect x="27.6mm" y="21.6mm" width="1.2mm" height="1.2mm" /><svg:rect x="31.2mm" y="21.6mm" width="1.2mm" height="1.2mm" /><svg:rect x="33.6mm" y="21.6mm" width="1.2mm" height="1.2mm" /><svg:rect x="34.8mm" y="21.6mm" width="1.2mm" height="1.2mm" /><svg:rect x="37.2mm" y="21.6mm" width="1.2mm" height="1.2mm" /><svg:rect x="38.4mm" y="21.6mm" width="1.2mm" height="1.2mm" /><svg:rect x="39.6mm" y="21.6mm" width="1.2mm" height="1.2mm" /><svg:rect x="40.8mm" y="21.6mm" width="1.2mm" height="1.2mm" /><svg:rect x="42mm" y="21.6mm" width="1.2mm" height="1.2mm" /><svg:rect x="44.4mm" y="21.6mm" width="1.2mm" height="1.2mm" /><svg:rect x="6mm" y="22.8mm" width="1.2mm" height="1.2mm" /><svg:rect x="7.2mm" y="22.8mm" width="1.2mm" height="1.2mm" /><svg:rect x="9.6mm" y="22.8mm" width="1.2mm" height="1.2mm" /><svg:rect x="10.8mm" y="22.8mm" width="1.2mm" height="1.2mm" /><svg:rect x="12mm" y="22.8mm" width="1.2mm" height="1.2mm" /><svg:rect x="15.6mm" y="22.8mm" width="1.2mm" height="1.2mm" /><svg:rect x="16.8mm" y="22.8mm" width="1.2mm" height="1.2mm" /><svg:rect x="18mm" y="22.8mm" width="1.2mm" height="1.2mm" /><svg:rect x="24mm" y="22.8mm" width="1.2mm" height="1.2mm" /><svg:rect x="25.2mm" y="22.8mm" width="1.2mm" height="1.2mm" /><svg:rect x="27.6mm" y="22.8mm" width="1.2mm" height="1.2mm" /><svg:rect x="28.8mm" y="22.8mm" width="1.2mm" height="1.2mm" /><svg:rect x="31.2mm" y="22.8mm" width="1.2mm" height="1.2mm" /><svg:rect x="32.4mm" y="22.8mm" width="1.2mm" height="1.2mm" /><svg:rect x="34.8mm" y="22.8mm" width="1.2mm" height="1.2mm" /><svg:rect x="36mm" y="22.8mm" width="1.2mm" height="1.2mm" /><svg:rect x="37.2mm" y="22.8mm" width="1.2mm" height="1.2mm" /><svg:rect x="38.4mm" y="22.8mm" width="1.2mm" height="1.2mm" /><svg:rect x="39.6mm" y="22.8mm" width="1.2mm" height="1.2mm" /><svg:rect x="42mm" y="22.8mm" width="1.2mm" height="1.2mm" /><svg:rect x="45.6mm" y="22.8mm" width="1.2mm" height="1.2mm" /><svg:rect x="48mm" y="22.8mm" width="1.2mm" height="1.2mm" /><svg:rect x="51.6mm" y="22.8mm" width="1.2mm" height="1.2mm" /><svg:rect x="3.6mm" y="24mm" width="1.2mm" height="1.2mm" /><svg:rect x="8.4mm" y="24mm" width="1.2mm" height="1.2mm" /><svg:rect x="13.2mm" y="24mm" width="1.2mm" height="1.2mm" /><svg:rect x="15.6mm" y="24mm" width="1.2mm" height="1.2mm" /><svg:rect x="16.8mm" y="24mm" width="1.2mm" height="1.2mm" /><svg:rect x="20.4mm" y="24mm" width="1.2mm" height="1.2mm" /><svg:rect x="22.8mm" y="24mm" width="1.2mm" height="1.2mm" /><svg:rect x="28.8mm" y="24mm" width="1.2mm" height="1.2mm" /><svg:rect x="30mm" y="24mm" width="1.2mm" height="1.2mm" /><svg:rect x="31.2mm" y="24mm" width="1.2mm" height="1.2mm" /><svg:rect x="37.2mm" y="24mm" width="1.2mm" height="1.2mm" /><svg:rect x="44.4mm" y="24mm" width="1.2mm" height="1.2mm" /><svg:rect x="45.6mm" y="24mm" width="1.2mm" height="1.2mm" /><svg:rect x="50.4mm" y="24mm" width="1.2mm" height="1.2mm" /><svg:rect x="51.6mm" y="24mm" width="1.2mm" height="1.2mm" /><svg:rect x="3.6mm" y="25.2mm" width="1.2mm" height="1.2mm" /><svg:rect x="4.8mm" y="25.2mm" width="1.2mm" height="1.2mm" /><svg:rect x="7.2mm" y="25.2mm" width="1.2mm" height="1.2mm" /><svg:rect x="8.4mm" y="25.2mm" width="1.2mm" height="1.2mm" /><svg:rect x="10.8mm" y="25.2mm" width="1.2mm" height="1.2mm" /><svg:rect x="15.6mm" y="25.2mm" width="1.2mm" height="1.2mm" /><svg:rect x="21.6mm" y="25.2mm" width="1.2mm" height="1.2mm" /><svg:rect x="27.6mm" y="25.2mm" width="1.2mm" height="1.2mm" /><svg:rect x="34.8mm" y="25.2mm" width="1.2mm" height="1.2mm" /><svg:rect x="39.6mm" y="25.2mm" width="1.2mm" height="1.2mm" /><svg:rect x="46.8mm" y="25.2mm" width="1.2mm" height="1.2mm" /><svg:rect x="48mm" y="25.2mm" width="1.2mm" height="1.2mm" /><svg:rect x="49.2mm" y="25.2mm" width="1.2mm" height="1.2mm" /><svg:rect x="50.4mm" y="25.2mm" width="1.2mm" height="1.2mm" /><svg:rect x="51.6mm" y="25.2mm" width="1.2mm" height="1.2mm" /><svg:rect x="3.6mm" y="26.4mm" width="1.2mm" height="1.2mm" /><svg:rect x="7.2mm" y="26.4mm" width="1.2mm" height="1.2mm" /><svg:rect x="9.6mm" y="26.4mm" width="1.2mm" height="1.2mm" /><svg:rect x="12mm" y="26.4mm" width="1.2mm" height="1.2mm" /><svg:rect x="13.2mm" y="26.4mm" width="1.2mm" height="1.2mm" /><svg:rect x="14.4mm" y="26.4mm" width="1.2mm" height="1.2mm" /><svg:rect x="19.2mm" y="26.4mm" width="1.2mm" height="1.2mm" /><svg:rect x="22.8mm" y="26.4mm" width="1.2mm" height="1.2mm" /><svg:rect x="27.6mm" y="26.4mm" width="1.2mm" height="1.2mm" /><svg:rect x="30mm" y="26.4mm" width="1.2mm" height="1.2mm" /><svg:rect x="31.2mm" y="26.4mm" width="1.2mm" height="1.2mm" /><svg:rect x="38.4mm" y="26.4mm" width="1.2mm" height="1.2mm" /><svg:rect x="39.6mm" y="26.4mm" width="1.2mm" height="1.2mm" /><svg:rect x="44.4mm" y="26.4mm" width="1.2mm" height="1.2mm" /><svg:rect x="45.6mm" y="26.4mm" width="1.2mm" height="1.2mm" /><svg:rect x="48mm" y="26.4mm" width="1.2mm" height="1.2mm" /><svg:rect x="3.6mm" y="27.6mm" width="1.2mm" height="1.2mm" /><svg:rect x="4.8mm" y="27.6mm" width="1.2mm" height="1.2mm" /><svg:rect x="6mm" y="27.6mm" width="1.2mm" height="1.2mm" /><svg:rect x="7.2mm" y="27.6mm" width="1.2mm" height="1.2mm" /><svg:rect x="8.4mm" y="27.6mm" width="1.2mm" height="1.2mm" /><svg:rect x="10.8mm" y="27.6mm" width="1.2mm" height="1.2mm" /><svg:rect x="12mm" y="27.6mm" width="1.2mm" height="1.2mm" /><svg:rect x="14.4mm" y="27.6mm" width="1.2mm" height="1.2mm" /><svg:rect x="15.6mm" y="27.6mm" width="1.2mm" height="1.2mm" /><svg:rect x="18mm" y="27.6mm" width="1.2mm" height="1.2mm" /><svg:rect x="22.8mm" y="27.6mm" width="1.2mm" height="1.2mm" /><svg:rect x="26.4mm" y="27.6mm" width="1.2mm" height="1.2mm" /><svg:rect x="28.8mm" y="27.6mm" width="1.2mm" height="1.2mm" /><svg:rect x="33.6mm" y="27.6mm" width="1.2mm" height="1.2mm" /><svg:rect x="36mm" y="27.6mm" width="1.2mm" height="1.2mm" /><svg:rect x="37.2mm" y="27.6mm" width="1.2mm" height="1.2mm" /><svg:rect x="38.4mm" y="27.6mm" width="1.2mm" height="1.2mm" /><svg:rect x="39.6mm" y="27.6mm" width="1.2mm" height="1.2mm" /><svg:rect x="42mm" y="27.6mm" width="1.2mm" height="1.2mm" /><svg:rect x="43.2mm" y="27.6mm" width="1.2mm" height="1.2mm" /><svg:rect x="44.4mm" y="27.6mm" width="1.2mm" height="1.2mm" /><svg:rect x="45.6mm" y="27.6mm" width="1.2mm" height="1.2mm" /><svg:rect x="49.2mm" y="27.6mm" width="1.2mm" height="1.2mm" /><svg:rect x="50.4mm" y="27.6mm" width="1.2mm" height="1.2mm" /><svg:rect x="51.6mm" y="27.6mm" width="1.2mm" height="1.2mm" /><svg:rect x="8.4mm" y="28.8mm" width="1.2mm" height="1.2mm" /><svg:rect x="12mm" y="28.8mm" width="1.2mm" height="1.2mm" /><svg:rect x="15.6mm" y="28.8mm" width="1.2mm" height="1.2mm" /><svg:rect x="20.4mm" y="28.8mm" width="1.2mm" height="1.2mm" /><svg:rect x="24mm" y="28.8mm" width="1.2mm" height="1.2mm" /><svg:rect x="25.2mm" y="28.8mm" width="1.2mm" height="1.2mm" /><svg:rect x="33.6mm" y="28.8mm" width="1.2mm" height="1.2mm" /><svg:rect x="39.6mm" y="28.8mm" width="1.2mm" height="1.2mm" /><svg:rect x="42mm" y="28.8mm" width="1.2mm" height="1.2mm" /><svg:rect x="44.4mm" y="28.8mm" width="1.2mm" height="1.2mm" /><svg:rect x="48mm" y="28.8mm" width="1.2mm" height="1.2mm" /><svg:rect x="49.2mm" y="28.8mm" width="1.2mm" height="1.2mm" /><svg:rect x="50.4mm" y="28.8mm" width="1.2mm" height="1.2mm" /><svg:rect x="51.6mm" y="28.8mm" width="1.2mm" height="1.2mm" /><svg:rect x="3.6mm" y="30mm" width="1.2mm" height="1.2mm" /><svg:rect x="7.2mm" y="30mm" width="1.2mm" height="1.2mm" /><svg:rect x="10.8mm" y="30mm" width="1.2mm" height="1.2mm" /><svg:rect x="14.4mm" y="30mm" width="1.2mm" height="1.2mm" /><svg:rect x="16.8mm" y="30mm" width="1.2mm" height="1.2mm" /><svg:rect x="18mm" y="30mm" width="1.2mm" height="1.2mm" /><svg:rect x="19.2mm" y="30mm" width="1.2mm" height="1.2mm" /><svg:rect x="20.4mm" y="30mm" width="1.2mm" height="1.2mm" /><svg:rect x="21.6mm" y="30mm" width="1.2mm" height="1.2mm" /><svg:rect x="24mm" y="30mm" width="1.2mm" height="1.2mm" /><svg:rect x="26.4mm" y="30mm" width="1.2mm" height="1.2mm" /><svg:rect x="37.2mm" y="30mm" width="1.2mm" height="1.2mm" /><svg:rect x="39.6mm" y="30mm" width="1.2mm" height="1.2mm" /><svg:rect x="40.8mm" y="30mm" width="1.2mm" height="1.2mm" /><svg:rect x="42mm" y="30mm" width="1.2mm" height="1.2mm" /><svg:rect x="43.2mm" y="30mm" width="1.2mm" height="1.2mm" /><svg:rect x="49.2mm" y="30mm" width="1.2mm" height="1.2mm" /><svg:rect x="50.4mm" y="30mm" width="1.2mm" height="1.2mm" /><svg:rect x="4.8mm" y="31.2mm" width="1.2mm" height="1.2mm" /><svg:rect x="8.4mm" y="31.2mm" width="1.2mm" height="1.2mm" /><svg:rect x="20.4mm" y="31.2mm" width="1.2mm" height="1.2mm" /><svg:rect x="25.2mm" y="31.2mm" width="1.2mm" height="1.2mm" /><svg:rect x="26.4mm" y="31.2mm" width="1.2mm" height="1.2mm" /><svg:rect x="27.6mm" y="31.2mm" width="1.2mm" height="1.2mm" /><svg:rect x="28.8mm" y="31.2mm" width="1.2mm" height="1.2mm" /><svg:rect x="32.4mm" y="31.2mm" width="1.2mm" height="1.2mm" /><svg:rect x="37.2mm" y="31.2mm" width="1.2mm" height="1.2mm" /><svg:rect x="40.8mm" y="31.2mm" width="1.2mm" height="1.2mm" /><svg:rect x="42mm" y="31.2mm" width="1.2mm" height="1.2mm" /><svg:rect x="45.6mm" y="31.2mm" width="1.2mm" height="1.2mm" /><svg:rect x="46.8mm" y="31.2mm" width="1.2mm" height="1.2mm" /><svg:rect x="49.2mm" y="31.2mm" width="1.2mm" height="1.2mm" /><svg:rect x="50.4mm" y="31.2mm" width="1.2mm" height="1.2mm" /><svg:rect x="8.4mm" y="32.4mm" width="1.2mm" height="1.2mm" /><svg:rect x="10.8mm" y="32.4mm" width="1.2mm" height="1.2mm" /><svg:rect x="13.2mm" y="32.4mm" width="1.2mm" height="1.2mm" /><svg:rect x="18mm" y="32.4mm" width="1.2mm" height="1.2mm" /><svg:rect x="19.2mm" y="32.4mm" width="1.2mm" height="1.2mm" /><svg:rect x="21.6mm" y="32.4mm" width="1.2mm" height="1.2mm" /><svg:rect x="27.6mm" y="32.4mm" width="1.2mm" height="1.2mm" /><svg:rect x="31.2mm" y="32.4mm" width="1.2mm" height="1.2mm" /><svg:rect x="32.4mm" y="32.4mm" width="1.2mm" height="1.2mm" /><svg:rect x="33.6mm" y="32.4mm" width="1.2mm" height="1.2mm" /><svg:rect x="36mm" y="32.4mm" width="1.2mm" height="1.2mm" /><svg:rect x="38.4mm" y="32.4mm" width="1.2mm" height="1.2mm" /><svg:rect x="40.8mm" y="32.4mm" width="1.2mm" height="1.2mm" /><svg:rect x="42mm" y="32.4mm" width="1.2mm" height="1.2mm" /><svg:rect x="43.2mm" y="32.4mm" width="1.2mm" height="1.2mm" /><svg:rect x="44.4mm" y="32.4mm" width="1.2mm" height="1.2mm" /><svg:rect x="45.6mm" y="32.4mm" width="1.2mm" height="1.2mm" /><svg:rect x="50.4mm" y="32.4mm" width="1.2mm" height="1.2mm" /><svg:rect x="51.6mm" y="32.4mm" width="1.2mm" height="1.2mm" /><svg:rect x="6mm" y="33.6mm" width="1.2mm" height="1.2mm" /><svg:rect x="9.6mm" y="33.6mm" width="1.2mm" height="1.2mm" /><svg:rect x="12mm" y="33.6mm" width="1.2mm" height="1.2mm" /><svg:rect x="18mm" y="33.6mm" width="1.2mm" height="1.2mm" /><svg:rect x="20.4mm" y="33.6mm" width="1.2mm" height="1.2mm" /><svg:rect x="24mm" y="33.6mm" width="1.2mm" height="1.2mm" /><svg:rect x="26.4mm" y="33.6mm" width="1.2mm" height="1.2mm" /><svg:rect x="31.2mm" y="33.6mm" width="1.2mm" height="1.2mm" /><svg:rect x="32.4mm" y="33.6mm" width="1.2mm" height="1.2mm" /><svg:rect x="34.8mm" y="33.6mm" width="1.2mm" height="1.2mm" /><svg:rect x="40.8mm" y="33.6mm" width="1.2mm" height="1.2mm" /><svg:rect x="48mm" y="33.6mm" width="1.2mm" height="1.2mm" /><svg:rect x="3.6mm" y="34.8mm" width="1.2mm" height="1.2mm" /><svg:rect x="4.8mm" y="34.8mm" width="1.2mm" height="1.2mm" /><svg:rect x="6mm" y="34.8mm" width="1.2mm" height="1.2mm" /><svg:rect x="7.2mm" y="34.8mm" width="1.2mm" height="1.2mm" /><svg:rect x="9.6mm" y="34.8mm" width="1.2mm" height="1.2mm" /><svg:rect x="10.8mm" y="34.8mm" width="1.2mm" height="1.2mm" /><svg:rect x="14.4mm" y="34.8mm" width="1.2mm" height="1.2mm" /><svg:rect x="16.8mm" y="34.8mm" width="1.2mm" height="1.2mm" /><svg:rect x="19.2mm" y="34.8mm" width="1.2mm" height="1.2mm" /><svg:rect x="20.4mm" y="34.8mm" width="1.2mm" height="1.2mm" /><svg:rect x="21.6mm" y="34.8mm" width="1.2mm" height="1.2mm" /><svg:rect x="24mm" y="34.8mm" width="1.2mm" height="1.2mm" /><svg:rect x="28.8mm" y="34.8mm" width="1.2mm" height="1.2mm" /><svg:rect x="31.2mm" y="34.8mm" width="1.2mm" height="1.2mm" /><svg:rect x="32.4mm" y="34.8mm" width="1.2mm" height="1.2mm" /><svg:rect x="33.6mm" y="34.8mm" width="1.2mm" height="1.2mm" /><svg:rect x="37.2mm" y="34.8mm" width="1.2mm" height="1.2mm" /><svg:rect x="42mm" y="34.8mm" width="1.2mm" height="1.2mm" /><svg:rect x="43.2mm" y="34.8mm" width="1.2mm" height="1.2mm" /><svg:rect x="44.4mm" y="34.8mm" width="1.2mm" height="1.2mm" /><svg:rect x="46.8mm" y="34.8mm" width="1.2mm" height="1.2mm" /><svg:rect x="50.4mm" y="34.8mm" width="1.2mm" height="1.2mm" /><svg:rect x="51.6mm" y="34.8mm" width="1.2mm" height="1.2mm" /><svg:rect x="3.6mm" y="36mm" width="1.2mm" height="1.2mm" /><svg:rect x="9.6mm" y="36mm" width="1.2mm" height="1.2mm" /><svg:rect x="12mm" y="36mm" width="1.2mm" height="1.2mm" /><svg:rect x="13.2mm" y="36mm" width="1.2mm" height="1.2mm" /><svg:rect x="15.6mm" y="36mm" width="1.2mm" height="1.2mm" /><svg:rect x="16.8mm" y="36mm" width="1.2mm" height="1.2mm" /><svg:rect x="19.2mm" y="36mm" width="1.2mm" height="1.2mm" /><svg:rect x="20.4mm" y="36mm" width="1.2mm" height="1.2mm" /><svg:rect x="22.8mm" y="36mm" width="1.2mm" height="1.2mm" /><svg:rect x="24mm" y="36mm" width="1.2mm" height="1.2mm" /><svg:rect x="26.4mm" y="36mm" width="1.2mm" height="1.2mm" /><svg:rect x="32.4mm" y="36mm" width="1.2mm" height="1.2mm" /><svg:rect x="33.6mm" y="36mm" width="1.2mm" height="1.2mm" /><svg:rect x="38.4mm" y="36mm" width="1.2mm" height="1.2mm" /><svg:rect x="42mm" y="36mm" width="1.2mm" height="1.2mm" /><svg:rect x="43.2mm" y="36mm" width="1.2mm" height="1.2mm" /><svg:rect x="45.6mm" y="36mm" width="1.2mm" height="1.2mm" /><svg:rect x="46.8mm" y="36mm" width="1.2mm" height="1.2mm" /><svg:rect x="10.8mm" y="37.2mm" width="1.2mm" height="1.2mm" /><svg:rect x="12mm" y="37.2mm" width="1.2mm" height="1.2mm" /><svg:rect x="13.2mm" y="37.2mm" width="1.2mm" height="1.2mm" /><svg:rect x="14.4mm" y="37.2mm" width="1.2mm" height="1.2mm" /><svg:rect x="15.6mm" y="37.2mm" width="1.2mm" height="1.2mm" /><svg:rect x="18mm" y="37.2mm" width="1.2mm" height="1.2mm" /><svg:rect x="20.4mm" y="37.2mm" width="1.2mm" height="1.2mm" /><svg:rect x="21.6mm" y="37.2mm" width="1.2mm" height="1.2mm" /><svg:rect x="26.4mm" y="37.2mm" width="1.2mm" height="1.2mm" /><svg:rect x="27.6mm" y="37.2mm" width="1.2mm" height="1.2mm" /><svg:rect x="28.8mm" y="37.2mm" width="1.2mm" height="1.2mm" /><svg:rect x="31.2mm" y="37.2mm" width="1.2mm" height="1.2mm" /><svg:rect x="32.4mm" y="37.2mm" width="1.2mm" height="1.2mm" /><svg:rect x="34.8mm" y="37.2mm" width="1.2mm" height="1.2mm" /><svg:rect x="37.2mm" y="37.2mm" width="1.2mm" height="1.2mm" /><svg:rect x="38.4mm" y="37.2mm" width="1.2mm" height="1.2mm" /><svg:rect x="42mm" y="37.2mm" width="1.2mm" height="1.2mm" /><svg:rect x="43.2mm" y="37.2mm" width="1.2mm" height="1.2mm" /><svg:rect x="50.4mm" y="37.2mm" width="1.2mm" height="1.2mm" /><svg:rect x="16.8mm" y="38.4mm" width="1.2mm" height="1.2mm" /><svg:rect x="19.2mm" y="38.4mm" width="1.2mm" height="1.2mm" /><svg:rect x="24mm" y="38.4mm" width="1.2mm" height="1.2mm" /><svg:rect x="25.2mm" y="38.4mm" width="1.2mm" height="1.2mm" /><svg:rect x="26.4mm" y="38.4mm" width="1.2mm" height="1.2mm" /><svg:rect x="27.6mm" y="38.4mm" width="1.2mm" height="1.2mm" /><svg:rect x="28.8mm" y="38.4mm" width="1.2mm" height="1.2mm" /><svg:rect x="31.2mm" y="38.4mm" width="1.2mm" height="1.2mm" /><svg:rect x="32.4mm" y="38.4mm" width="1.2mm" height="1.2mm" /><svg:rect x="36mm" y="38.4mm" width="1.2mm" height="1.2mm" /><svg:rect x="38.4mm" y="38.4mm" width="1.2mm" height="1.2mm" /><svg:rect x="43.2mm" y="38.4mm" width="1.2mm" height="1.2mm" /><svg:rect x="44.4mm" y="38.4mm" width="1.2mm" height="1.2mm" /><svg:rect x="45.6mm" y="38.4mm" width="1.2mm" height="1.2mm" /><svg:rect x="49.2mm" y="38.4mm" width="1.2mm" height="1.2mm" /><svg:rect x="50.4mm" y="38.4mm" width="1.2mm" height="1.2mm" /><svg:rect x="51.6mm" y="38.4mm" width="1.2mm" height="1.2mm" /><svg:rect x="3.6mm" y="39.6mm" width="1.2mm" height="1.2mm" /><svg:rect x="6mm" y="39.6mm" width="1.2mm" height="1.2mm" /><svg:rect x="9.6mm" y="39.6mm" width="1.2mm" height="1.2mm" /><svg:rect x="10.8mm" y="39.6mm" width="1.2mm" height="1.2mm" /><svg:rect x="15.6mm" y="39.6mm" width="1.2mm" height="1.2mm" /><svg:rect x="16.8mm" y="39.6mm" width="1.2mm" height="1.2mm" /><svg:rect x="18mm" y="39.6mm" width="1.2mm" height="1.2mm" /><svg:rect x="19.2mm" y="39.6mm" width="1.2mm" height="1.2mm" /><svg:rect x="20.4mm" y="39.6mm" width="1.2mm" height="1.2mm" /><svg:rect x="24mm" y="39.6mm" width="1.2mm" height="1.2mm" /><svg:rect x="30mm" y="39.6mm" width="1.2mm" height="1.2mm" /><svg:rect x="32.4mm" y="39.6mm" width="1.2mm" height="1.2mm" /><svg:rect x="34.8mm" y="39.6mm" width="1.2mm" height="1.2mm" /><svg:rect x="38.4mm" y="39.6mm" width="1.2mm" height="1.2mm" /><svg:rect x="49.2mm" y="39.6mm" width="1.2mm" height="1.2mm" /><svg:rect x="50.4mm" y="39.6mm" width="1.2mm" height="1.2mm" /><svg:rect x="51.6mm" y="39.6mm" width="1.2mm" height="1.2mm" /><svg:rect x="6mm" y="40.8mm" width="1.2mm" height="1.2mm" /><svg:rect x="7.2mm" y="40.8mm" width="1.2mm" height="1.2mm" /><svg:rect x="8.4mm" y="40.8mm" width="1.2mm" height="1.2mm" /><svg:rect x="12mm" y="40.8mm" width="1.2mm" height="1.2mm" /><svg:rect x="16.8mm" y="40.8mm" width="1.2mm" height="1.2mm" /><svg:rect x="20.4mm" y="40.8mm" width="1.2mm" height="1.2mm" /><svg:rect x="26.4mm" y="40.8mm" width="1.2mm" height="1.2mm" /><svg:rect x="27.6mm" y="40.8mm" width="1.2mm" height="1.2mm" /><svg:rect x="31.2mm" y="40.8mm" width="1.2mm" height="1.2mm" /><svg:rect x="36mm" y="40.8mm" width="1.2mm" height="1.2mm" /><svg:rect x="37.2mm" y="40.8mm" width="1.2mm" height="1.2mm" /><svg:rect x="38.4mm" y="40.8mm" width="1.2mm" height="1.2mm" /><svg:rect x="39.6mm" y="40.8mm" width="1.2mm" height="1.2mm" /><svg:rect x="42mm" y="40.8mm" width="1.2mm" height="1.2mm" /><svg:rect x="43.2mm" y="40.8mm" width="1.2mm" height="1.2mm" /><svg:rect x="46.8mm" y="40.8mm" width="1.2mm" height="1.2mm" /><svg:rect x="51.6mm" y="40.8mm" width="1.2mm" height="1.2mm" /><svg:rect x="3.6mm" y="42mm" width="1.2mm" height="1.2mm" /><svg:rect x="7.2mm" y="42mm" width="1.2mm" height="1.2mm" /><svg:rect x="8.4mm" y="42mm" width="1.2mm" height="1.2mm" /><svg:rect x="10.8mm" y="42mm" width="1.2mm" height="1.2mm" /><svg:rect x="12mm" y="42mm" width="1.2mm" height="1.2mm" /><svg:rect x="13.2mm" y="42mm" width="1.2mm" height="1.2mm" /><svg:rect x="15.6mm" y="42mm" width="1.2mm" height="1.2mm" /><svg:rect x="16.8mm" y="42mm" width="1.2mm" height="1.2mm" /><svg:rect x="19.2mm" y="42mm" width="1.2mm" height="1.2mm" /><svg:rect x="20.4mm" y="42mm" width="1.2mm" height="1.2mm" /><svg:rect x="24mm" y="42mm" width="1.2mm" height="1.2mm" /><svg:rect x="25.2mm" y="42mm" width="1.2mm" height="1.2mm" /><svg:rect x="26.4mm" y="42mm" width="1.2mm" height="1.2mm" /><svg:rect x="28.8mm" y="42mm" width="1.2mm" height="1.2mm" /><svg:rect x="30mm" y="42mm" width="1.2mm" height="1.2mm" /><svg:rect x="37.2mm" y="42mm" width="1.2mm" height="1.2mm" /><svg:rect x="40.8mm" y="42mm" width="1.2mm" height="1.2mm" /><svg:rect x="42mm" y="42mm" width="1.2mm" height="1.2mm" /><svg:rect x="43.2mm" y="42mm" width="1.2mm" height="1.2mm" /><svg:rect x="44.4mm" y="42mm" width="1.2mm" height="1.2mm" /><svg:rect x="45.6mm" y="42mm" width="1.2mm" height="1.2mm" /><svg:rect x="46.8mm" y="42mm" width="1.2mm" height="1.2mm" /><svg:rect x="49.2mm" y="42mm" width="1.2mm" height="1.2mm" /><svg:rect x="51.6mm" y="42mm" width="1.2mm" height="1.2mm" /><svg:rect x="13.2mm" y="43.2mm" width="1.2mm" height="1.2mm" /><svg:rect x="14.4mm" y="43.2mm" width="1.2mm" height="1.2mm" /><svg:rect x="15.6mm" y="43.2mm" width="1.2mm" height="1.2mm" /><svg:rect x="16.8mm" y="43.2mm" width="1.2mm" height="1.2mm" /><svg:rect x="18mm" y="43.2mm" width="1.2mm" height="1.2mm" /><svg:rect x="22.8mm" y="43.2mm" width="1.2mm" height="1.2mm" /><svg:rect x="26.4mm" y="43.2mm" width="1.2mm" height="1.2mm" /><svg:rect x="32.4mm" y="43.2mm" width="1.2mm" height="1.2mm" /><svg:rect x="34.8mm" y="43.2mm" width="1.2mm" height="1.2mm" /><svg:rect x="37.2mm" y="43.2mm" width="1.2mm" height="1.2mm" /><svg:rect x="40.8mm" y="43.2mm" width="1.2mm" height="1.2mm" /><svg:rect x="42mm" y="43.2mm" width="1.2mm" height="1.2mm" /><svg:rect x="46.8mm" y="43.2mm" width="1.2mm" height="1.2mm" /><svg:rect x="49.2mm" y="43.2mm" width="1.2mm" height="1.2mm" /><svg:rect x="50.4mm" y="43.2mm" width="1.2mm" height="1.2mm" /><svg:rect x="51.6mm" y="43.2mm" width="1.2mm" height="1.2mm" /><svg:rect x="3.6mm" y="44.4mm" width="1.2mm" height="1.2mm" /><svg:rect x="4.8mm" y="44.4mm" width="1.2mm" height="1.2mm" /><svg:rect x="6mm" y="44.4mm" width="1.2mm" height="1.2mm" /><svg:rect x="7.2mm" y="44.4mm" width="1.2mm" height="1.2mm" /><svg:rect x="8.4mm" y="44.4mm" width="1.2mm" height="1.2mm" /><svg:rect x="9.6mm" y="44.4mm" width="1.2mm" height="1.2mm" /><svg:rect x="10.8mm" y="44.4mm" width="1.2mm" height="1.2mm" /><svg:rect x="14.4mm" y="44.4mm" width="1.2mm" height="1.2mm" /><svg:rect x="15.6mm" y="44.4mm" width="1.2mm" height="1.2mm" /><svg:rect x="16.8mm" y="44.4mm" width="1.2mm" height="1.2mm" /><svg:rect x="18mm" y="44.4mm" width="1.2mm" height="1.2mm" /><svg:rect x="20.4mm" y="44.4mm" width="1.2mm" height="1.2mm" /><svg:rect x="24mm" y="44.4mm" width="1.2mm" height="1.2mm" /><svg:rect x="26.4mm" y="44.4mm" width="1.2mm" height="1.2mm" /><svg:rect x="28.8mm" y="44.4mm" width="1.2mm" height="1.2mm" /><svg:rect x="32.4mm" y="44.4mm" width="1.2mm" height="1.2mm" /><svg:rect x="34.8mm" y="44.4mm" width="1.2mm" height="1.2mm" /><svg:rect x="38.4mm" y="44.4mm" width="1.2mm" height="1.2mm" /><svg:rect x="42mm" y="44.4mm" width="1.2mm" height="1.2mm" /><svg:rect x="44.4mm" y="44.4mm" width="1.2mm" height="1.2mm" /><svg:rect x="46.8mm" y="44.4mm" width="1.2mm" height="1.2mm" /><svg:rect x="48mm" y="44.4mm" width="1.2mm" height="1.2mm" /><svg:rect x="49.2mm" y="44.4mm" width="1.2mm" height="1.2mm" /><svg:rect x="50.4mm" y="44.4mm" width="1.2mm" height="1.2mm" /><svg:rect x="3.6mm" y="45.6mm" width="1.2mm" height="1.2mm" /><svg:rect x="10.8mm" y="45.6mm" width="1.2mm" height="1.2mm" /><svg:rect x="14.4mm" y="45.6mm" width="1.2mm" height="1.2mm" /><svg:rect x="15.6mm" y="45.6mm" width="1.2mm" height="1.2mm" /><svg:rect x="20.4mm" y="45.6mm" width="1.2mm" height="1.2mm" /><svg:rect x="22.8mm" y="45.6mm" width="1.2mm" height="1.2mm" /><svg:rect x="26.4mm" y="45.6mm" width="1.2mm" height="1.2mm" /><svg:rect x="27.6mm" y="45.6mm" width="1.2mm" height="1.2mm" /><svg:rect x="28.8mm" y="45.6mm" width="1.2mm" height="1.2mm" /><svg:rect x="32.4mm" y="45.6mm" width="1.2mm" height="1.2mm" /><svg:rect x="37.2mm" y="45.6mm" width="1.2mm" height="1.2mm" /><svg:rect x="38.4mm" y="45.6mm" width="1.2mm" height="1.2mm" /><svg:rect x="42mm" y="45.6mm" width="1.2mm" height="1.2mm" /><svg:rect x="46.8mm" y="45.6mm" width="1.2mm" height="1.2mm" /><svg:rect x="49.2mm" y="45.6mm" width="1.2mm" height="1.2mm" /><svg:rect x="51.6mm" y="45.6mm" width="1.2mm" height="1.2mm" /><svg:rect x="3.6mm" y="46.8mm" width="1.2mm" height="1.2mm" /><svg:rect x="6mm" y="46.8mm" width="1.2mm" height="1.2mm" /><svg:rect x="7.2mm" y="46.8mm" width="1.2mm" height="1.2mm" /><svg:rect x="8.4mm" y="46.8mm" width="1.2mm" height="1.2mm" /><svg:rect x="10.8mm" y="46.8mm" width="1.2mm" height="1.2mm" /><svg:rect x="18mm" y="46.8mm" width="1.2mm" height="1.2mm" /><svg:rect x="19.2mm" y="46.8mm" width="1.2mm" height="1.2mm" /><svg:rect x="21.6mm" y="46.8mm" width="1.2mm" height="1.2mm" /><svg:rect x="25.2mm" y="46.8mm" width="1.2mm" height="1.2mm" /><svg:rect x="26.4mm" y="46.8mm" width="1.2mm" height="1.2mm" /><svg:rect x="27.6mm" y="46.8mm" width="1.2mm" height="1.2mm" /><svg:rect x="28.8mm" y="46.8mm" width="1.2mm" height="1.2mm" /><svg:rect x="30mm" y="46.8mm" width="1.2mm" height="1.2mm" /><svg:rect x="31.2mm" y="46.8mm" width="1.2mm" height="1.2mm" /><svg:rect x="32.4mm" y="46.8mm" width="1.2mm" height="1.2mm" /><svg:rect x="33.6mm" y="46.8mm" width="1.2mm" height="1.2mm" /><svg:rect x="34.8mm" y="46.8mm" width="1.2mm" height="1.2mm" /><svg:rect x="37.2mm" y="46.8mm" width="1.2mm" height="1.2mm" /><svg:rect x="42mm" y="46.8mm" width="1.2mm" height="1.2mm" /><svg:rect x="43.2mm" y="46.8mm" width="1.2mm" height="1.2mm" /><svg:rect x="44.4mm" y="46.8mm" width="1.2mm" height="1.2mm" /><svg:rect x="45.6mm" y="46.8mm" width="1.2mm" height="1.2mm" /><svg:rect x="46.8mm" y="46.8mm" width="1.2mm" height="1.2mm" /><svg:rect x="3.6mm" y="48mm" width="1.2mm" height="1.2mm" /><svg:rect x="6mm" y="48mm" width="1.2mm" height="1.2mm" /><svg:rect x="7.2mm" y="48mm" width="1.2mm" height="1.2mm" /><svg:rect x="8.4mm" y="48mm" width="1.2mm" height="1.2mm" /><svg:rect x="10.8mm" y="48mm" width="1.2mm" height="1.2mm" /><svg:rect x="13.2mm" y="48mm" width="1.2mm" height="1.2mm" /><svg:rect x="14.4mm" y="48mm" width="1.2mm" height="1.2mm" /><svg:rect x="15.6mm" y="48mm" width="1.2mm" height="1.2mm" /><svg:rect x="16.8mm" y="48mm" width="1.2mm" height="1.2mm" /><svg:rect x="18mm" y="48mm" width="1.2mm" height="1.2mm" /><svg:rect x="21.6mm" y="48mm" width="1.2mm" height="1.2mm" /><svg:rect x="22.8mm" y="48mm" width="1.2mm" height="1.2mm" /><svg:rect x="25.2mm" y="48mm" width="1.2mm" height="1.2mm" /><svg:rect x="26.4mm" y="48mm" width="1.2mm" height="1.2mm" /><svg:rect x="31.2mm" y="48mm" width="1.2mm" height="1.2mm" /><svg:rect x="32.4mm" y="48mm" width="1.2mm" height="1.2mm" /><svg:rect x="33.6mm" y="48mm" width="1.2mm" height="1.2mm" /><svg:rect x="34.8mm" y="48mm" width="1.2mm" height="1.2mm" /><svg:rect x="42mm" y="48mm" width="1.2mm" height="1.2mm" /><svg:rect x="43.2mm" y="48mm" width="1.2mm" height="1.2mm" /><svg:rect x="44.4mm" y="48mm" width="1.2mm" height="1.2mm" /><svg:rect x="46.8mm" y="48mm" width="1.2mm" height="1.2mm" /><svg:rect x="3.6mm" y="49.2mm" width="1.2mm" height="1.2mm" /><svg:rect x="6mm" y="49.2mm" width="1.2mm" height="1.2mm" /><svg:rect x="7.2mm" y="49.2mm" width="1.2mm" height="1.2mm" /><svg:rect x="8.4mm" y="49.2mm" width="1.2mm" height="1.2mm" /><svg:rect x="10.8mm" y="49.2mm" width="1.2mm" height="1.2mm" /><svg:rect x="14.4mm" y="49.2mm" width="1.2mm" height="1.2mm" /><svg:rect x="16.8mm" y="49.2mm" width="1.2mm" height="1.2mm" /><svg:rect x="18mm" y="49.2mm" width="1.2mm" height="1.2mm" /><svg:rect x="20.4mm" y="49.2mm" width="1.2mm" height="1.2mm" /><svg:rect x="24mm" y="49.2mm" width="1.2mm" height="1.2mm" /><svg:rect x="30mm" y="49.2mm" width="1.2mm" height="1.2mm" /><svg:rect x="31.2mm" y="49.2mm" width="1.2mm" height="1.2mm" /><svg:rect x="34.8mm" y="49.2mm" width="1.2mm" height="1.2mm" /><svg:rect x="39.6mm" y="49.2mm" width="1.2mm" height="1.2mm" /><svg:rect x="46.8mm" y="49.2mm" width="1.2mm" height="1.2mm" /><svg:rect x="48mm" y="49.2mm" width="1.2mm" height="1.2mm" /><svg:rect x="51.6mm" y="49.2mm" width="1.2mm" height="1.2mm" /><svg:rect x="3.6mm" y="50.4mm" width="1.2mm" height="1.2mm" /><svg:rect x="10.8mm" y="50.4mm" width="1.2mm" height="1.2mm" /><svg:rect x="15.6mm" y="50.4mm" width="1.2mm" height="1.2mm" /><svg:rect x="22.8mm" y="50.4mm" width="1.2mm" height="1.2mm" /><svg:rect x="24mm" y="50.4mm" width="1.2mm" height="1.2mm" /><svg:rect x="25.2mm" y="50.4mm" width="1.2mm" height="1.2mm" /><svg:rect x="26.4mm" y="50.4mm" width="1.2mm" height="1.2mm" /><svg:rect x="28.8mm" y="50.4mm" width="1.2mm" height="1.2mm" /><svg:rect x="30mm" y="50.4mm" width="1.2mm" height="1.2mm" /><svg:rect x="31.2mm" y="50.4mm" width="1.2mm" height="1.2mm" /><svg:rect x="32.4mm" y="50.4mm" width="1.2mm" height="1.2mm" /><svg:rect x="36mm" y="50.4mm" width="1.2mm" height="1.2mm" /><svg:rect x="38.4mm" y="50.4mm" width="1.2mm" height="1.2mm" /><svg:rect x="39.6mm" y="50.4mm" width="1.2mm" height="1.2mm" /><svg:rect x="40.8mm" y="50.4mm" width="1.2mm" height="1.2mm" /><svg:rect x="42mm" y="50.4mm" width="1.2mm" height="1.2mm" /><svg:rect x="45.6mm" y="50.4mm" width="1.2mm" height="1.2mm" /><svg:rect x="48mm" y="50.4mm" width="1.2mm" height="1.2mm" /><svg:rect x="50.4mm" y="50.4mm" width="1.2mm" height="1.2mm" /><svg:rect x="3.6mm" y="51.6mm" width="1.2mm" height="1.2mm" /><svg:rect x="4.8mm" y="51.6mm" width="1.2mm" height="1.2mm" /><svg:rect x="6mm" y="51.6mm" width="1.2mm" height="1.2mm" /><svg:rect x="7.2mm" y="51.6mm" width="1.2mm" height="1.2mm" /><svg:rect x="8.4mm" y="51.6mm" width="1.2mm" height="1.2mm" /><svg:rect x="9.6mm" y="51.6mm" width="1.2mm" height="1.2mm" /><svg:rect x="10.8mm" y="51.6mm" width="1.2mm" height="1.2mm" /><svg:rect x="18mm" y="51.6mm" width="1.2mm" height="1.2mm" /><svg:rect x="20.4mm" y="51.6mm" width="1.2mm" height="1.2mm" /><svg:rect x="21.6mm" y="51.6mm" width="1.2mm" height="1.2mm" /><svg:rect x="25.2mm" y="51.6mm" width="1.2mm" height="1.2mm" /><svg:rect x="26.4mm" y="51.6mm" width="1.2mm" height="1.2mm" /><svg:rect x="27.6mm" y="51.6mm" width="1.2mm" height="1.2mm" /><svg:rect x="32.4mm" y="51.6mm" width="1.2mm" height="1.2mm" /><svg:rect x="36mm" y="51.6mm" width="1.2mm" height="1.2mm" /><svg:rect x="37.2mm" y="51.6mm" width="1.2mm" height="1.2mm" /><svg:rect x="38.4mm" y="51.6mm" width="1.2mm" height="1.2mm" /><svg:rect x="42mm" y="51.6mm" width="1.2mm" height="1.2mm" /><svg:rect x="45.6mm" y="51.6mm" width="1.2mm" height="1.2mm" /><svg:rect x="46.8mm" y="51.6mm" width="1.2mm" height="1.2mm" /><svg:rect x="48mm" y="51.6mm" width="1.2mm" height="1.2mm" /><svg:rect x="50.4mm" y="51.6mm" width="1.2mm" height="1.2mm" /></svg>